<svg width="100%" height="100%" viewBox="0 0 1536 762" fill="none" xmlns="http://www.w3.org/2000/svg">
<g id="gloom 1">
<g id="night">
<path id="Vector" d="M768 0C345.847 0 3.25798 340.604 0 762H1536C1532.74 340.604 1190.15 0 768 0Z" fill="#2F2E41"/>
</g>
<path id="Vector_2" d="M323.86 437.118H320.83V438.633H323.86V437.118Z" fill="#F2F2F2"/>
<path id="Vector_3" d="M631.378 378.037H628.349V379.552H631.378V378.037Z" fill="#F2F2F2"/>
<g id="manyStars">
<path id="Vector_4" d="M728.33 87.174C732.513 87.174 735.904 83.7827 735.904 79.5994C735.904 75.4161 732.513 72.0248 728.33 72.0248C724.147 72.0248 720.756 75.4161 720.756 79.5994C720.756 83.7827 724.147 87.174 728.33 87.174Z" fill="#F2F2F2"/>
<path id="Vector_5" d="M490.496 332.589C492.169 332.589 493.525 331.233 493.525 329.56C493.525 327.886 492.169 326.53 490.496 326.53C488.822 326.53 487.466 327.886 487.466 329.56C487.466 331.233 488.822 332.589 490.496 332.589Z" fill="#F2F2F2"/>
<path id="Vector_6" d="M937.382 474.991C939.055 474.991 940.412 473.635 940.412 471.961C940.412 470.288 939.055 468.931 937.382 468.931C935.709 468.931 934.352 470.288 934.352 471.961C934.352 473.635 935.709 474.991 937.382 474.991Z" fill="#F2F2F2"/>
<path id="Vector_7" d="M148.135 437.118C149.809 437.118 151.165 435.762 151.165 434.088C151.165 432.415 149.809 431.059 148.135 431.059C146.462 431.059 145.106 432.415 145.106 434.088C145.106 435.762 146.462 437.118 148.135 437.118Z" fill="#F2F2F2"/>
<path id="Vector_8" d="M1329.73 329.56C1331.41 329.56 1332.76 328.203 1332.76 326.53C1332.76 324.857 1331.41 323.5 1329.73 323.5C1328.06 323.5 1326.7 324.857 1326.7 326.53C1326.7 328.203 1328.06 329.56 1329.73 329.56Z" fill="#F2F2F2"/>
<path id="Vector_9" d="M357.187 361.373C358.86 361.373 360.217 360.016 360.217 358.343C360.217 356.67 358.86 355.313 357.187 355.313C355.514 355.313 354.158 356.67 354.158 358.343C354.158 360.016 355.514 361.373 357.187 361.373Z" fill="#F2F2F2"/>
<path id="Vector_10" d="M854.064 300.776C855.737 300.776 857.094 299.42 857.094 297.746C857.094 296.073 855.737 294.717 854.064 294.717C852.391 294.717 851.034 296.073 851.034 297.746C851.034 299.42 852.391 300.776 854.064 300.776Z" fill="#F2F2F2"/>
<path id="Vector_11" d="M954.045 82.6292C955.719 82.6292 957.075 81.2727 957.075 79.5994C957.075 77.9261 955.719 76.5696 954.045 76.5696C952.372 76.5696 951.016 77.9261 951.016 79.5994C951.016 81.2727 952.372 82.6292 954.045 82.6292Z" fill="#F2F2F2"/>
<path id="Vector_12" d="M413.237 205.337H410.208V206.852H413.237V205.337Z" fill="#F2F2F2"/>
<path id="Vector_13" d="M1210.06 444.693H1207.03V446.208H1210.06V444.693Z" fill="#F2F2F2"/>
<path id="Vector_14" d="M1029.79 212.911H1026.76V214.426H1029.79V212.911Z" fill="#F2F2F2"/>
</g>
<path id="Vector_15" d="M346.312 550.943H340.981V761.52H346.312V550.943Z" fill="#3F3D56"/>
<path id="Vector_16" d="M395.51 514.152C395.849 587.786 344.046 647.718 344.046 647.718C344.046 647.718 291.692 588.266 291.352 514.632C291.013 440.998 342.817 381.067 342.817 381.067C342.817 381.067 395.171 440.519 395.51 514.152Z" fill="#3F3D56"/>
<path id="Vector_17" d="M280.511 488.516H273.6V761.52H280.511V488.516Z" fill="#3F3D56"/>
<path id="Vector_18" d="M344.295 459.681C344.735 555.144 277.574 632.843 277.574 632.843C277.574 632.843 209.699 555.766 209.259 460.304C208.819 364.841 275.98 287.142 275.98 287.142C275.98 287.142 343.855 364.219 344.295 459.681Z" fill="#3F3D56"/>
<path id="Vector_19" d="M1084.05 550.943H1078.72V761.52H1084.05V550.943Z" fill="#6C63FF"/>
<path id="Vector_20" d="M1133.25 577.778C1133.59 651.412 1081.79 711.344 1081.79 711.344C1081.79 711.344 1029.43 651.892 1029.09 578.258C1028.75 504.625 1080.56 444.693 1080.56 444.693C1080.56 444.693 1132.91 504.145 1133.25 577.778Z" fill="#3F3D56"/>
<path id="Vector_21" d="M219.063 550.943H213.732V761.52H219.063V550.943Z" fill="#3F3D56"/>
<path id="Vector_22" d="M268.261 514.152C268.6 587.786 216.797 647.718 216.797 647.718C216.797 647.718 164.443 588.266 164.103 514.632C163.764 440.998 215.568 381.067 215.568 381.067C215.568 381.067 267.922 440.519 268.261 514.152Z" fill="#3F3D56"/>
<path id="Vector_23" d="M688.672 550.943H683.341V761.52H688.672V550.943Z" fill="#3F3D56"/>
<path id="Vector_24" d="M737.87 514.152C738.21 587.786 686.406 647.718 686.406 647.718C686.406 647.718 634.052 588.266 633.713 514.632C633.373 440.998 685.177 381.067 685.177 381.067C685.177 381.067 737.531 440.519 737.87 514.152Z" fill="#3F3D56"/>
<path id="Vector_25" d="M622.872 488.516H615.96V761.52H622.872V488.516Z" fill="#3F3D56"/>
<path id="Vector_26" d="M686.655 459.681C687.095 555.144 619.934 632.843 619.934 632.843C619.934 632.843 552.059 555.766 551.619 460.304C551.179 364.841 618.341 287.142 618.341 287.142C618.341 287.142 686.215 364.219 686.655 459.681Z" fill="#3F3D56"/>
<path id="Vector_27" d="M561.423 550.943H556.092V761.52H561.423V550.943Z" fill="#3F3D56"/>
<path id="Vector_28" d="M610.621 514.152C610.961 587.786 559.157 647.718 559.157 647.718C559.157 647.718 506.803 588.266 506.464 514.632C506.124 440.998 557.928 381.067 557.928 381.067C557.928 381.067 610.282 440.519 610.621 514.152Z" fill="#3F3D56"/>
<path id="Vector_29" d="M1118.52 649.008L1029.44 567.099C1029.2 570.78 1029.08 574.5 1029.09 578.258C1029.43 651.892 1081.79 711.344 1081.79 711.344C1097.03 692.484 1109.41 671.479 1118.52 649.008V649.008Z" fill="#6C63FF"/>
<path id="Vector_30" d="M455.436 742.736C458.488 754.019 468.942 761.006 468.942 761.006C468.942 761.006 474.448 749.701 471.396 738.419C468.343 727.136 457.889 720.148 457.889 720.148C457.889 720.148 452.384 731.454 455.436 742.736Z" fill="#3F3D56"/>
<path id="Vector_31" d="M459.921 740.311C468.296 748.464 469.318 760.997 469.318 760.997C469.318 760.997 456.763 760.312 448.388 752.159C440.013 744.006 438.99 731.473 438.99 731.473C438.99 731.473 451.546 732.159 459.921 740.311Z" fill="#3F3D56"/>
<path id="Vector_32" d="M885.659 742.736C888.711 754.019 899.165 761.006 899.165 761.006C899.165 761.006 904.67 749.701 901.618 738.419C898.566 727.136 888.112 720.148 888.112 720.148C888.112 720.148 882.607 731.454 885.659 742.736Z" fill="#6C63FF"/>
<path id="Vector_33" d="M890.143 740.311C898.518 748.464 899.541 760.997 899.541 760.997C899.541 760.997 886.986 760.312 878.611 752.159C870.236 744.006 869.213 731.473 869.213 731.473C869.213 731.473 881.768 732.159 890.143 740.311Z" fill="#6C63FF"/>
<path id="Vector_34" d="M116.105 742.736C119.157 754.019 129.611 761.006 129.611 761.006C129.611 761.006 135.117 749.701 132.065 738.419C129.013 727.136 118.559 720.148 118.559 720.148C118.559 720.148 113.053 731.454 116.105 742.736Z" fill="#3F3D56"/>
<path id="Vector_35" d="M120.59 740.311C128.965 748.464 129.988 760.997 129.988 760.997C129.988 760.997 117.432 760.312 109.057 752.159C100.682 744.006 99.6595 731.473 99.6595 731.473C99.6595 731.473 112.215 732.159 120.59 740.311Z" fill="#3F3D56"/>
<path id="Vector_36" d="M586.758 334.352L732.959 555.016C736.224 541.64 737.873 527.921 737.87 514.152C737.705 478.246 725.171 445.716 712.37 421.803L705.607 423.484L711.968 421.057C704.431 406.845 695.453 393.444 685.177 381.067C685.177 381.067 681.447 385.384 675.998 393.117C656.79 330.812 618.341 287.142 618.341 287.142C606.34 301.842 595.765 317.65 586.758 334.352V334.352Z" fill="#6C63FF"/>
<path id="Vector_37" opacity="0.1" d="M1427.94 752.591C1429.1 752.591 1430.21 752.131 1431.02 751.314C1431.84 750.496 1432.3 749.388 1432.3 748.231C1432.3 747.075 1431.84 745.967 1431.02 745.149C1430.21 744.331 1429.1 743.872 1427.94 743.872H1392.1C1393.26 746.184 1393.45 748.861 1392.63 751.314C1391.81 753.766 1390.05 755.794 1387.74 756.95C1387.74 758.106 1388.2 759.215 1389.02 760.032C1389.84 760.85 1390.94 761.309 1392.1 761.309H1427.94C1429.1 761.309 1430.21 760.85 1431.02 760.032C1431.84 759.215 1432.3 758.106 1432.3 756.95C1432.3 755.794 1431.84 754.685 1431.02 753.867C1430.21 753.05 1429.1 752.591 1427.94 752.591V752.591Z" fill="#F2F2F2"/>
<path id="Vector_38" d="M1342.75 743.596C1343.37 767.369 1328.99 761.309 1311.55 761.309C1294.12 761.309 1279.74 764.339 1279.62 743.596C1279.57 733.381 1293.86 731.159 1311.29 731.159C1328.73 731.159 1342.49 733.384 1342.75 743.596Z" fill="#3F3D56"/>
<path id="Vector_39" d="M1383.54 752.991C1383.26 752.841 1382.95 752.742 1382.63 752.7C1381.05 752.449 1379.48 752.114 1377.94 751.696C1376.39 751.275 1374.96 750.481 1373.78 749.384C1373.34 748.868 1372.85 748.399 1372.32 747.982C1372.05 747.778 1371.72 747.656 1371.39 747.631C1371.05 747.607 1370.71 747.681 1370.41 747.845C1370.35 747.893 1370.29 747.947 1370.24 748.005C1370.03 747.863 1369.81 747.72 1369.59 747.577C1368.44 746.818 1367.28 746.067 1366.12 745.325L1366.07 745.294C1366.1 745.111 1366.1 744.924 1366.07 744.741C1365.87 744.138 1365.46 743.628 1364.91 743.301C1366.41 743.287 1367.93 743.15 1369.42 742.992C1370.84 743.016 1372.22 742.479 1373.25 741.496C1373.4 741.325 1373.49 741.108 1373.51 740.878C1373.51 740.407 1373.03 740.099 1372.59 739.921C1372.01 739.684 1371.41 739.506 1370.8 739.391C1370.37 739.33 1369.94 739.241 1369.52 739.125C1369.15 738.989 1368.79 738.819 1368.45 738.617C1367.71 738.21 1366.97 737.802 1366.23 737.395C1365.91 737.242 1365.62 737.041 1365.37 736.799C1364.99 736.399 1364.82 735.835 1364.44 735.443C1364.08 735.082 1362.65 734.606 1362.45 735.346C1362.37 735.639 1362.68 735.962 1362.71 736.29C1362.22 735.978 1361.7 735.696 1361.18 735.445C1361.2 735.38 1361.24 735.32 1361.27 735.252C1358.81 733.282 1356.86 730.755 1355.57 727.879C1355.79 727.884 1356.01 727.898 1356.23 727.896C1356.61 727.931 1356.98 727.839 1357.3 727.635C1357.43 727.517 1357.53 727.37 1357.6 727.206C1357.66 727.042 1357.69 726.865 1357.68 726.689C1357.65 726.338 1357.56 725.993 1357.42 725.669C1357.11 724.7 1356.61 723.801 1355.95 723.024C1355.31 722.407 1354.58 721.89 1353.79 721.489L1353.66 721.417C1353.61 721.254 1353.56 721.089 1353.49 720.929C1353.01 719.935 1352.47 718.972 1351.87 718.046C1351.03 716.496 1350.4 714.836 1350.02 713.113C1349.88 712.063 1349.47 711.065 1348.85 710.211C1347.69 708.936 1345.71 708.969 1344 709.161C1343.03 709.271 1342.05 709.418 1341.09 709.569C1341.08 709.545 1341.08 709.518 1341.07 709.494C1340.94 709.265 1340.87 709.015 1340.84 708.758C1340.87 708.548 1340.91 708.34 1340.98 708.139C1341.03 707.89 1341.02 707.631 1340.95 707.387C1340.87 707.143 1340.74 706.922 1340.56 706.744C1340.52 706.705 1340.48 706.661 1340.44 706.619C1340.54 706.367 1340.64 706.113 1340.73 705.857C1340.81 705.762 1340.87 705.652 1340.91 705.533C1340.94 705.415 1340.96 705.29 1340.94 705.166C1341.12 704.546 1341.21 703.904 1341.22 703.259C1341.02 701.833 1340.97 700.391 1341.07 698.955C1341.02 698.599 1340.89 698.259 1340.69 697.96C1340.65 697.912 1340.59 697.89 1340.55 697.848C1340.85 697.457 1341.19 697.102 1341.57 696.793C1342.32 696.216 1343.11 695.71 1343.95 695.281C1344.15 695.17 1344.44 695.092 1344.63 694.965C1344.92 695.014 1345.22 695.044 1345.52 695.055C1346.63 695.061 1347.72 694.796 1348.71 694.282C1349.69 693.768 1350.54 693.021 1351.17 692.106C1351.79 691.191 1352.19 690.136 1352.32 689.033C1352.44 687.93 1352.3 686.812 1351.89 685.778C1352.2 685.704 1352.49 685.568 1352.75 685.38C1353 685.192 1353.22 684.955 1353.38 684.683C1353.71 684.105 1353.91 683.461 1353.96 682.796C1354.01 682.541 1354.02 682.278 1353.97 682.022C1353.92 681.766 1353.82 681.522 1353.68 681.304C1353.42 681.057 1353.13 680.852 1352.81 680.697C1352.37 680.422 1352 680.047 1351.73 679.603C1351.54 679.287 1351.4 678.941 1351.23 678.614C1350.94 678.008 1350.49 677.492 1349.94 677.122C1349.38 676.752 1348.73 676.542 1348.06 676.515C1347.42 676.596 1346.79 676.721 1346.17 676.89C1344.05 677.262 1341.75 676.14 1339.78 677.015C1339.3 677.251 1338.85 677.551 1338.44 677.907C1337.89 678.364 1337.36 678.845 1336.85 679.351C1336.4 679.729 1336.07 680.218 1335.87 680.768C1335.61 681.772 1336.24 682.893 1335.84 683.85C1335.7 684.124 1335.53 684.383 1335.34 684.625C1334.9 685.279 1335.38 687.835 1335.33 688.626C1335.28 689.013 1335.37 689.407 1335.61 689.722C1335.67 689.781 1335.73 689.833 1335.81 689.874C1332.51 691.051 1329.28 692.423 1326.14 693.981C1322.37 695.803 1319.25 698.724 1317.17 702.358C1316.64 703.396 1316.24 704.495 1315.75 705.558C1315.11 706.975 1314.34 708.327 1313.56 709.677C1312.61 711.322 1311.66 712.971 1310.57 714.522C1309.95 715.344 1309.37 716.201 1308.84 717.088C1308.82 717.217 1308.82 717.347 1308.83 717.477C1308.85 717.599 1308.84 717.725 1308.79 717.841C1308.74 717.909 1308.68 717.965 1308.61 718.006C1308.54 718.047 1308.46 718.072 1308.38 718.078L1308.35 718.145C1308.1 718.942 1307.9 719.752 1307.74 720.571C1307.41 721.872 1306.9 723.128 1306.7 724.454C1306.59 724.621 1306.52 724.817 1306.52 725.019C1306.51 725.221 1306.57 725.42 1306.67 725.592C1306.78 725.763 1306.94 725.899 1307.12 725.983C1307.3 726.067 1307.51 726.095 1307.71 726.064C1308.84 726.569 1309.94 727.159 1311.03 727.756C1311.01 727.836 1310.99 727.913 1310.98 727.994C1310.94 728.838 1311.14 729.675 1311.56 730.407C1311.98 731.14 1312.6 731.739 1313.35 732.135C1314.85 732.904 1316.5 733.351 1318.18 733.45C1318.84 733.528 1319.49 733.565 1320.15 733.632C1321.1 734.163 1322.12 734.575 1323.18 734.858C1323.41 734.926 1323.64 734.963 1323.88 734.969C1324.21 734.948 1324.52 734.855 1324.8 734.697C1325.08 734.539 1325.32 734.32 1325.5 734.057C1331.14 734.368 1336.79 734.253 1342.4 733.712C1343.96 733.35 1345.59 733.603 1346.96 734.419C1348.18 735.409 1348.42 737.164 1349.33 738.446C1349.99 739.237 1350.73 739.957 1351.53 740.596C1353.14 742.293 1354.55 744.158 1355.76 746.156C1356.98 748.175 1358.75 749.806 1360.86 750.862C1361.24 750.256 1361.79 749.777 1362.44 749.485C1362.61 749.385 1362.77 749.268 1362.94 749.16C1363.16 749.522 1363.42 749.86 1363.71 750.168C1363.93 750.403 1364.14 750.651 1364.35 750.907C1364.34 750.907 1364.33 750.904 1364.33 750.905C1364.03 750.951 1363.93 751.32 1363.9 751.616C1363.77 752.752 1363.64 753.888 1363.51 755.023C1363.47 755.248 1363.48 755.481 1363.56 755.697C1363.7 755.932 1363.91 756.111 1364.17 756.205C1365.22 756.711 1366.36 757.012 1367.53 757.092C1368.12 757.132 1368.71 757.116 1369.29 757.167C1370.25 757.292 1371.21 757.482 1372.14 757.736C1374.69 758.316 1377.3 758.521 1379.91 758.344C1380.45 758.331 1380.98 758.23 1381.48 758.045C1382.08 757.759 1382.61 757.348 1383.04 756.842C1383.58 756.327 1383.98 755.682 1384.21 754.968C1384.31 754.609 1384.3 754.227 1384.18 753.874C1384.06 753.52 1383.84 753.212 1383.54 752.991V752.991Z" fill="#3F3D56"/>
<path id="Vector_40" d="M1341.63 676.89C1341.88 676.846 1342.13 676.778 1342.38 676.714C1341.58 676.615 1340.77 676.693 1340.01 676.943C1340.55 676.992 1341.09 676.975 1341.63 676.89V676.89Z" fill="#FF6584"/>
<path id="Vector_41" d="M1346.68 678.614C1346.85 678.941 1346.99 679.287 1347.18 679.603C1347.45 680.048 1347.82 680.422 1348.26 680.698C1348.58 680.852 1348.88 681.057 1349.13 681.304C1349.27 681.522 1349.37 681.766 1349.42 682.022C1349.47 682.278 1349.47 682.541 1349.42 682.796C1349.37 683.461 1349.17 684.105 1348.83 684.683C1348.67 684.955 1348.46 685.192 1348.2 685.38C1347.95 685.568 1347.66 685.704 1347.35 685.779C1347.82 686.881 1347.98 688.089 1347.82 689.276C1347.66 690.462 1347.18 691.584 1346.44 692.523C1345.69 693.462 1344.71 694.184 1343.59 694.614C1342.48 695.043 1341.26 695.164 1340.08 694.965C1339.89 695.092 1339.61 695.17 1339.41 695.281C1338.57 695.71 1337.77 696.216 1337.02 696.793C1336.64 697.102 1336.3 697.457 1336.01 697.848C1336.05 697.891 1336.11 697.912 1336.14 697.96C1336.34 698.26 1336.47 698.599 1336.52 698.955C1336.42 700.391 1336.48 701.834 1336.67 703.259C1336.67 703.904 1336.57 704.546 1336.4 705.167C1336.41 705.29 1336.4 705.415 1336.36 705.534C1336.33 705.652 1336.26 705.762 1336.18 705.857C1336.09 706.113 1336 706.367 1335.89 706.619C1335.93 706.662 1335.97 706.705 1336.01 706.744C1336.19 706.922 1336.33 707.143 1336.4 707.387C1336.48 707.631 1336.49 707.89 1336.44 708.14C1336.37 708.34 1336.32 708.548 1336.3 708.758C1336.32 709.016 1336.4 709.265 1336.52 709.494C1336.53 709.518 1336.53 709.545 1336.54 709.569C1337.51 709.418 1338.48 709.271 1339.46 709.161C1339.94 709.105 1340.42 709.074 1340.9 709.067C1340.87 708.968 1340.85 708.864 1340.84 708.758C1340.87 708.548 1340.91 708.34 1340.98 708.14C1341.03 707.89 1341.02 707.631 1340.95 707.387C1340.87 707.143 1340.74 706.922 1340.56 706.744C1340.52 706.705 1340.48 706.662 1340.44 706.619C1340.54 706.367 1340.64 706.113 1340.73 705.857C1340.81 705.762 1340.87 705.652 1340.91 705.534C1340.94 705.415 1340.96 705.29 1340.94 705.167C1341.12 704.546 1341.21 703.904 1341.22 703.259C1341.02 701.834 1340.97 700.391 1341.07 698.955C1341.02 698.599 1340.89 698.26 1340.69 697.96C1340.65 697.912 1340.59 697.891 1340.55 697.848C1340.85 697.457 1341.19 697.102 1341.57 696.793C1342.32 696.216 1343.11 695.71 1343.95 695.281C1344.15 695.17 1344.44 695.092 1344.63 694.965C1344.92 695.014 1345.22 695.044 1345.52 695.055C1346.63 695.061 1347.72 694.796 1348.71 694.282C1349.69 693.768 1350.54 693.021 1351.16 692.106C1351.79 691.191 1352.19 690.136 1352.32 689.033C1352.44 687.93 1352.3 686.813 1351.89 685.779C1352.2 685.704 1352.49 685.568 1352.75 685.38C1353 685.192 1353.22 684.955 1353.38 684.683C1353.71 684.105 1353.91 683.461 1353.96 682.796C1354.01 682.541 1354.02 682.278 1353.97 682.022C1353.92 681.766 1353.82 681.522 1353.68 681.304C1353.42 681.057 1353.13 680.852 1352.81 680.698C1352.37 680.422 1352 680.048 1351.73 679.603C1351.54 679.287 1351.4 678.941 1351.23 678.614C1350.94 678.008 1350.49 677.492 1349.94 677.122C1349.38 676.752 1348.73 676.542 1348.06 676.515C1347.42 676.596 1346.79 676.721 1346.17 676.89C1345.83 676.946 1345.48 676.969 1345.12 676.96C1345.78 677.359 1346.32 677.931 1346.68 678.614V678.614Z" fill="#FF6584"/>
<path id="Vector_42" d="M1383.54 752.991C1383.26 752.841 1382.95 752.742 1382.63 752.7C1381.05 752.449 1379.48 752.114 1377.94 751.696C1376.39 751.275 1374.96 750.481 1373.78 749.384C1373.34 748.868 1372.85 748.398 1372.32 747.982C1372.05 747.777 1371.72 747.656 1371.39 747.631C1371.05 747.607 1370.71 747.681 1370.41 747.845C1370.35 747.893 1370.29 747.947 1370.24 748.005C1370.03 747.862 1369.81 747.72 1369.59 747.577C1368.44 746.817 1367.28 746.067 1366.12 745.324L1366.07 745.294C1366.1 745.111 1366.1 744.924 1366.07 744.741C1365.87 744.138 1365.46 743.628 1364.91 743.301C1366.41 743.287 1367.93 743.15 1369.42 742.992C1370.84 743.016 1372.22 742.479 1373.25 741.496C1373.4 741.325 1373.49 741.108 1373.51 740.878C1373.51 740.407 1373.03 740.099 1372.59 739.921C1372.01 739.684 1371.41 739.506 1370.8 739.391C1370.37 739.33 1369.94 739.241 1369.52 739.124C1369.15 738.989 1368.79 738.819 1368.45 738.617C1367.71 738.21 1366.97 737.802 1366.23 737.395C1365.91 737.242 1365.62 737.04 1365.37 736.798C1364.99 736.399 1364.82 735.835 1364.44 735.443C1364.08 735.081 1362.65 734.606 1362.45 735.346C1362.37 735.639 1362.68 735.962 1362.71 736.289C1362.22 735.978 1361.7 735.696 1361.18 735.445C1361.2 735.379 1361.24 735.32 1361.27 735.252C1358.81 733.282 1356.86 730.755 1355.57 727.879C1355.79 727.884 1356.01 727.898 1356.23 727.896C1356.61 727.93 1356.98 727.839 1357.3 727.635C1357.43 727.517 1357.53 727.37 1357.6 727.206C1357.66 727.042 1357.69 726.865 1357.68 726.689C1357.65 726.337 1357.56 725.993 1357.42 725.669C1357.11 724.7 1356.61 723.801 1355.95 723.024C1355.31 722.407 1354.58 721.889 1353.79 721.489L1353.66 721.417C1353.61 721.254 1353.56 721.089 1353.49 720.929C1353.01 719.934 1352.47 718.972 1351.87 718.046C1351.03 716.496 1350.4 714.836 1350.02 713.113C1349.88 712.063 1349.47 711.065 1348.85 710.21C1347.69 708.936 1345.71 708.969 1344 709.161C1343.62 709.204 1343.24 709.268 1342.86 709.321C1343.41 709.483 1343.91 709.79 1344.3 710.21C1344.93 711.065 1345.33 712.063 1345.47 713.113C1345.86 714.836 1346.48 716.496 1347.33 718.046C1347.93 718.972 1348.47 719.934 1348.95 720.929C1349.01 721.089 1349.06 721.254 1349.11 721.417L1349.24 721.489C1350.04 721.889 1350.76 722.407 1351.4 723.024C1352.06 723.801 1352.56 724.7 1352.88 725.669C1353.02 725.993 1353.1 726.337 1353.13 726.689C1353.15 726.865 1353.12 727.042 1353.05 727.206C1352.99 727.37 1352.89 727.517 1352.75 727.635C1352.44 727.839 1352.06 727.93 1351.69 727.896C1351.47 727.898 1351.25 727.884 1351.03 727.879C1352.31 730.755 1354.26 733.282 1356.72 735.252C1356.7 735.32 1356.66 735.379 1356.63 735.445C1357.16 735.696 1357.67 735.978 1358.17 736.289C1358.13 735.962 1357.82 735.639 1357.9 735.346C1358.11 734.606 1359.54 735.081 1359.89 735.443C1360.28 735.835 1360.45 736.399 1360.82 736.798C1361.08 737.04 1361.37 737.242 1361.68 737.395C1362.42 737.802 1363.16 738.21 1363.9 738.617C1364.24 738.819 1364.6 738.989 1364.98 739.124C1365.39 739.241 1365.82 739.33 1366.25 739.391C1366.87 739.506 1367.47 739.684 1368.05 739.921C1368.48 740.099 1368.97 740.407 1368.97 740.878C1368.95 741.108 1368.86 741.325 1368.7 741.496C1367.67 742.479 1366.3 743.016 1364.87 742.992C1363.38 743.15 1361.87 743.287 1360.37 743.301C1360.91 743.628 1361.32 744.138 1361.53 744.741C1361.56 744.924 1361.56 745.111 1361.52 745.294L1361.57 745.324C1362.74 746.067 1363.89 746.817 1365.05 747.577C1365.26 747.719 1365.48 747.862 1365.7 748.005C1365.75 747.947 1365.81 747.893 1365.87 747.845C1366.16 747.681 1366.5 747.607 1366.84 747.631C1367.18 747.656 1367.5 747.777 1367.77 747.982C1368.31 748.398 1368.8 748.868 1369.24 749.384C1370.42 750.481 1371.84 751.275 1373.39 751.696C1374.94 752.114 1376.51 752.449 1378.09 752.7C1378.41 752.742 1378.71 752.841 1378.99 752.991C1379.29 753.212 1379.52 753.52 1379.64 753.874C1379.76 754.227 1379.77 754.609 1379.66 754.968C1379.44 755.682 1379.04 756.327 1378.49 756.842C1378.07 757.348 1377.54 757.759 1376.94 758.045C1376.57 758.186 1376.18 758.271 1375.79 758.299C1377.16 758.42 1378.53 758.435 1379.91 758.344C1380.45 758.331 1380.98 758.23 1381.48 758.045C1382.08 757.759 1382.61 757.348 1383.04 756.842C1383.58 756.327 1383.98 755.682 1384.21 754.968C1384.31 754.609 1384.3 754.227 1384.18 753.874C1384.06 753.52 1383.84 753.212 1383.54 752.991V752.991Z" fill="#FF6584"/>
<path id="Vector_43" d="M1358.34 749.198C1358.41 749.266 1358.48 749.337 1358.56 749.404C1358.51 749.322 1358.44 749.244 1358.39 749.16L1358.34 749.198Z" fill="#FF6584"/>
<path id="Vector_44" d="M1426 736.607C1426 752.657 1418.85 748.232 1410.02 748.232C1401.19 748.232 1394.04 752.657 1394.04 736.607C1394.04 720.557 1410.02 690.108 1410.02 690.108C1410.02 690.108 1426 720.557 1426 736.607Z" fill="#FF6584"/>
<path id="Vector_45" opacity="0.1" d="M1417.29 742.748C1417.29 750.043 1414.03 748.032 1410.02 748.032C1406.01 748.032 1402.76 750.043 1402.76 742.748C1402.76 735.452 1410.02 721.612 1410.02 721.612C1410.02 721.612 1417.29 735.452 1417.29 742.748Z" fill="black"/>
<path id="Vector_46" d="M1430.06 693.72C1430.06 693.72 1433.38 690.267 1433.31 686.88Z" fill="#FF6584"/>
<path id="Vector_47" d="M1396.03 664.949C1396.03 664.949 1394.64 660.363 1391.65 658.763Z" fill="#FF6584"/>
<path id="Vector_48" d="M1362.7 602.837C1362.7 602.837 1361.31 598.252 1358.33 596.652Z" fill="#FF6584"/>
<path id="Vector_49" d="M1402.09 686.157C1402.09 686.157 1400.7 681.572 1397.71 679.972Z" fill="#FF6584"/>
<path id="Vector_50" d="M1397.54 611.927C1397.54 611.927 1396.15 607.341 1393.17 605.741Z" fill="#FF6584"/>
<path id="Vector_51" d="M1388.45 639.195C1388.45 639.195 1387.07 634.609 1384.08 633.01Z" fill="#FF6584"/>
<path id="Vector_52" d="M1427.03 740.682C1427.03 740.682 1430.35 737.229 1430.28 733.843Z" fill="#FF6584"/>
<path id="Vector_53" d="M1433.09 714.929C1433.09 714.929 1436.41 711.476 1436.34 708.089Z" fill="#FF6584"/>
<path id="Vector_54" d="M1391.6 710.598L1355.25 722.717L1355.73 724.155L1392.08 712.036L1391.6 710.598Z" fill="#FF6584"/>
<path id="Vector_55" d="M1388.96 712.044C1390.33 717.377 1388.04 716.103 1385.95 716.535C1383.86 716.968 1384.27 718.892 1381.4 713.61C1379.41 709.956 1382.32 709.55 1384.41 709.118C1386.5 708.686 1388.03 708.402 1388.96 712.044Z" fill="#FF6584"/>
<path id="Vector_56" opacity="0.1" d="M870.637 421.08L870.636 421.078L837.583 390.686L837.286 390.761L824.051 378.728L823.411 378.541L824.101 378.279L683.341 248.856L547.402 123.862L478.135 160.605L472.469 161.859L555.48 287.142L869.638 761.309H1240.66L870.637 421.08Z" fill="#F2F2F2"/>
<path id="Vector_57" d="M507.159 181.098C529.748 181.098 548.061 162.786 548.061 140.196C548.061 117.606 529.748 99.2932 507.159 99.2932C484.57 99.2932 466.258 117.606 466.258 140.196C466.258 162.786 484.57 181.098 507.159 181.098Z" fill="#F2F2F2"/>
</g>
</svg>
