<svg width="100%" height="100%" viewBox="0 0 928 743" fill="none" xmlns="http://www.w3.org/2000/svg">
<g id="hey 1" clip-path="url(#clip0)">
<path id="Vector" d="M915.5 298.573V298.583V298.593V506.5H351.5V298.593V298.582L351.5 298.572C351.399 239.349 371.136 181.67 407.78 134.276L407.786 134.268L407.792 134.26C432.382 102.349 463.852 76.0198 500.023 57.1304C536.196 38.2405 576.186 27.2527 617.201 24.9484L617.21 24.9479C622.58 24.6424 628.004 24.493 633.483 24.5003L633.492 24.5003H633.5C636.633 24.5003 639.729 24.5443 642.764 24.6521L642.793 24.6532L642.823 24.6541C714.466 26.8623 782.48 55.5923 833.004 104.886L833.01 104.892L833.015 104.898C834.52 106.362 836.002 107.847 837.57 109.418C845.282 117.281 852.508 125.579 859.213 134.267L859.219 134.276C895.859 181.672 915.596 239.35 915.5 298.573Z" fill="black" stroke="white" stroke-width="25"/>
<g id="moon">
<path id="Vector_2" d="M781.313 289.799C824.173 289.799 858.919 255.987 858.919 214.278C858.919 172.569 824.173 138.756 781.313 138.756C738.453 138.756 703.708 172.569 703.708 214.278C703.708 255.987 738.453 289.799 781.313 289.799Z" fill="#6C63FF"/>
<path id="Vector_3" opacity="0.2" d="M773.68 170.946C778.598 170.946 782.585 167.066 782.585 162.28C782.585 157.493 778.598 153.613 773.68 153.613C768.761 153.613 764.774 157.493 764.774 162.28C764.774 167.066 768.761 170.946 773.68 170.946Z" fill="black"/>
<path id="Vector_4" opacity="0.2" d="M788.946 257.61C793.865 257.61 797.852 253.73 797.852 248.943C797.852 244.157 793.865 240.277 788.946 240.277C784.028 240.277 780.041 244.157 780.041 248.943C780.041 253.73 784.028 257.61 788.946 257.61Z" fill="black"/>
<path id="Vector_5" opacity="0.2" d="M823.296 206.849C826.81 206.849 829.657 204.078 829.657 200.659C829.657 197.24 826.81 194.469 823.296 194.469C819.783 194.469 816.935 197.24 816.935 200.659C816.935 204.078 819.783 206.849 823.296 206.849Z" fill="black"/>
<path id="Vector_6" opacity="0.2" d="M750.78 240.277C762.022 240.277 771.135 231.408 771.135 220.468C771.135 209.528 762.022 200.659 750.78 200.659C739.538 200.659 730.424 209.528 730.424 220.468C730.424 231.408 739.538 240.277 750.78 240.277Z" fill="black"/>
</g>
<path id="Vector_7" opacity="0.8" d="M537.259 421.557L575.999 377.507L614.739 333.456L636.608 308.589C637.818 307.213 635.951 305.067 634.741 306.443L596.001 350.493L557.261 394.544L535.392 419.411C534.182 420.787 536.049 422.933 537.259 421.557V421.557Z" fill="url(#paint0_linear)"/>
<path id="Vector_8" opacity="0.8" d="M534.237 227.557L572.597 183.507L610.957 139.456L632.612 114.589C633.81 113.213 631.961 111.067 630.763 112.443L592.403 156.493L554.043 200.544L532.388 225.411C531.19 226.787 533.039 228.933 534.237 227.557V227.557Z" fill="url(#paint1_linear)"/>
<path id="Vector_9" d="M643 12.1655V519H616V12.4728C621.682 12.1537 627.41 11.9962 633.182 12.0001C636.471 12.0001 639.748 12.0473 643 12.1655Z" fill="white"/>
<g id="stars">
<path id="Vector_10" d="M862.179 351.577C865.556 351.577 868.294 348.913 868.294 345.626C868.294 342.34 865.556 339.676 862.179 339.676C858.802 339.676 856.064 342.34 856.064 345.626C856.064 348.913 858.802 351.577 862.179 351.577Z" fill="#E6E6E6"/>
<path id="Vector_11" d="M468.46 305.616C472.602 305.616 475.96 302.258 475.96 298.116C475.96 293.973 472.602 290.616 468.46 290.616C464.317 290.616 460.96 293.973 460.96 298.116C460.96 302.258 464.317 305.616 468.46 305.616Z" fill="#E6E6E6"/>
<path id="Vector_12" d="M712.124 416.74L709.072 419.691L706.04 416.72L704.006 418.687L707.037 421.657L703.985 424.607L706.005 426.587L709.058 423.637L712.089 426.607L714.124 424.64L711.092 421.67L714.144 418.721L712.124 416.74Z" fill="#E6E6E6"/>
<path id="Vector_13" d="M505.778 154.326L502.727 157.276L499.695 154.305L497.66 156.272L500.691 159.242L497.639 162.192L499.659 164.172L502.712 161.223L505.743 164.193L507.778 162.226L504.747 159.256L507.798 156.306L505.778 154.326Z" fill="#E6E6E6"/>
</g>
<path id="Vector_14" d="M408.468 382.512L405.416 385.463L402.384 382.492L400.35 384.459L403.381 387.429L400.329 390.379L402.349 392.359L405.402 389.409L408.433 392.379L410.468 390.412L407.436 387.442L410.488 384.493L408.468 382.512Z" fill="#E6E6E6"/>
<path id="Vector_15" d="M746.124 323.184L743.072 326.134L740.04 323.163L738.006 325.13L741.037 328.1L737.985 331.051L740.005 333.03L743.058 330.081L746.089 333.051L748.124 331.084L745.092 328.114L748.144 325.164L746.124 323.184Z" fill="#E6E6E6"/>
<path id="Vector_16" d="M568.096 706.076H-38V708.076H568.096V706.076Z" fill="#E6E6E6"/>
<path id="Vector_17" d="M96.4241 544.564C83.1741 563.294 79.6741 669.894 78.8941 704.064C78.8741 704.834 78.8541 705.564 78.8441 706.254H45.3041C44.8941 705.524 44.5141 704.804 44.1541 704.064C24.2741 664.824 35.3041 617.774 35.8841 615.394C34.3741 622.874 41.2041 644.554 48.9241 665.554C53.634 600.984 93.9041 547.824 96.4241 544.564Z" fill="#E6E6E6"/>
<path id="Vector_18" d="M265.245 448.862L261.449 465.312C261.449 465.312 262.714 503.273 252.592 499.477C242.469 495.68 244.999 462.781 244.999 462.781L253.857 446.331L265.245 448.862Z" fill="#FFB8B8"/>
<path id="Vector_19" d="M208.937 268.548C222.913 268.548 234.244 257.218 234.244 243.241C234.244 229.264 222.913 217.934 208.937 217.934C194.96 217.934 183.63 229.264 183.63 243.241C183.63 257.218 194.96 268.548 208.937 268.548Z" fill="#FFB8B8"/>
<path id="Vector_20" d="M189.324 250.201L186.793 286.896L218.427 290.692C218.427 290.692 218.427 260.323 220.958 256.527C223.488 252.731 189.324 250.201 189.324 250.201Z" fill="#FFB8B8"/>
<path id="Vector_21" d="M259.478 297.988L218.487 280.672C218.487 280.672 198.9 265.585 187.427 276.762L182.278 284.137C182.278 284.137 136.741 301.892 136.753 315.811L154.529 385.39C154.529 385.39 144.441 424.625 159.627 427.142L241.882 434.662C241.882 434.662 253.258 420.734 243.12 403.027L246.879 361.267L259.478 297.988Z" fill="#E6E6E6"/>
<path id="Vector_22" d="M231.641 299.278L259.478 297.988C259.478 297.988 268.337 300.511 274.685 324.547C281.033 348.584 282.333 387.809 282.333 387.809L267.21 458.682L248.228 456.168L255.76 387.832L243.067 342.29L231.641 299.278Z" fill="#E6E6E6"/>
<path id="Vector_23" d="M151.93 306.94L138.209 311.226C138.209 311.226 126.641 328.473 126.649 337.331C126.657 346.188 121.654 413.257 121.654 413.257L154.601 467.638L164.701 441.057L144.425 406.91L160.838 365.139L151.93 306.94Z" fill="#E6E6E6"/>
<path id="Vector_24" d="M245.632 431.78L154.657 423.775C154.657 423.775 145.669 481.129 146.934 503.905C148.199 526.682 149.465 562.112 149.465 562.112L139.342 716.486L178.568 711.424L183.63 583.623L200.079 514.028L219.06 602.603L231.713 716.486L265.878 712.69L254.49 574.765C254.49 574.765 264.613 450.76 245.632 431.78Z" fill="#564FCC"/>
<path id="Vector_25" d="M258.286 706.363L269.674 710.159C269.674 710.159 293.716 703.832 287.389 720.282C281.062 736.731 263.347 734.201 263.347 734.201C263.347 734.201 241.836 750.65 232.979 737.997L238.04 711.424L258.286 706.363Z" fill="#2F2E41"/>
<path id="Vector_26" d="M165.914 706.363L177.303 710.159C177.303 710.159 201.345 703.832 195.018 720.282C188.691 736.731 170.976 734.201 170.976 734.201C170.976 734.201 149.465 750.65 140.607 737.997L145.669 711.424L165.914 706.363Z" fill="#2F2E41"/>
<path id="Vector_27" d="M189.324 265.385C189.324 265.385 162.751 246.404 176.67 223.628C186.326 207.827 206.335 209.078 217.685 211.326C220.743 211.89 223.618 213.19 226.062 215.113C228.506 217.035 230.445 219.523 231.713 222.363C233.611 226.791 233.611 231.22 226.019 231.22C210.835 231.22 218.427 242.608 218.427 242.608C218.427 242.608 208.304 245.139 210.835 253.997C213.365 262.854 189.324 265.385 189.324 265.385Z" fill="#2F2E41"/>
</g>
<defs>
<linearGradient id="paint0_linear" x1="535" y1="364" x2="637" y2="364" gradientUnits="userSpaceOnUse">
<stop stop-color="white"/>
<stop offset="1" stop-color="white" stop-opacity="0.3"/>
</linearGradient>
<linearGradient id="paint1_linear" x1="73834" y1="25327.3" x2="82601.8" y2="25327.3" gradientUnits="userSpaceOnUse">
<stop stop-color="white"/>
<stop offset="1" stop-color="white" stop-opacity="0.3"/>
</linearGradient>
<clipPath id="clip0">
<rect width="927.76" height="742.508" fill="white"/>
</clipPath>
</defs>
</svg>
