<svg width="100%" height="100%" viewBox="0 0 951 768" fill="none" xmlns="http://www.w3.org/2000/svg">
<g id="light 1" clip-path="url(#clip0)">
<path id="Vector" d="M452.616 748.868C577.166 748.868 678.134 745.26 678.134 740.81C678.134 736.36 577.166 732.752 452.616 732.752C328.066 732.752 227.099 736.36 227.099 740.81C227.099 745.26 328.066 748.868 452.616 748.868Z" fill="#3F3D56"/>
<g id="sun">
<path id="Vector_2" d="M347.489 380.776C392.056 380.776 428.184 344.633 428.184 300.048C428.184 255.464 392.056 219.321 347.489 219.321C302.923 219.321 266.795 255.464 266.795 300.048C266.795 344.633 302.923 380.776 347.489 380.776Z" fill="#FF6584"/>
</g>
<path id="Vector_3" d="M252.416 719.673C289.977 719.673 320.427 716.865 320.427 713.401C320.427 709.938 289.977 707.13 252.416 707.13C214.855 707.13 184.405 709.938 184.405 713.401C184.405 716.865 214.855 719.673 252.416 719.673Z" fill="#3F3D56"/>
<path id="Vector_4" d="M376.316 741.361C376.316 741.361 432.763 590.772 401.645 498.102C370.526 405.432 345.921 409.052 345.921 409.052C345.921 409.052 303.947 398.192 251.842 430.047C199.737 461.903 185.987 471.315 156.316 458.283C126.645 445.251 120.855 424.979 48.4868 427.151C48.4868 427.151 86.8421 406.156 124.474 424.979C162.105 443.803 187.434 453.939 225.789 424.979C264.145 396.02 316.974 358.373 368.355 380.816C368.355 380.816 330.724 343.893 318.421 343.893C306.118 343.893 248.224 338.101 229.408 318.554C229.408 318.554 202.632 299.73 154.868 346.065C107.105 392.4 118.684 392.4 75.9869 388.78C33.2895 385.16 0 364.165 0 364.165C0 364.165 49.9342 384.436 80.329 374.3C110.724 364.165 136.776 325.793 163.553 312.762C190.329 299.73 206.25 282.354 242.434 301.178C242.434 301.178 227.237 238.915 198.289 243.983C169.342 249.051 212.039 229.503 212.039 229.503C212.039 229.503 204.079 123.802 188.882 116.562C173.684 109.322 183.092 90.4982 154.868 86.8783C154.868 86.8783 189.605 82.5343 196.118 106.426C202.632 130.317 247.5 259.187 247.5 259.187C247.5 259.187 275 314.21 305.395 301.178C335.789 288.146 293.816 215.024 293.816 215.024L241.711 191.132C241.711 191.132 280.79 189.684 304.671 212.128C328.553 234.571 330 306.97 330 306.97C330 306.97 390.066 315.658 404.539 348.237C404.539 348.237 413.947 319.278 395.855 301.902C391.332 297.558 386.583 290.001 382.004 281.11C364.49 247.107 358.549 208.347 364.058 170.495C366.755 151.972 368.414 133.861 365.461 129.593C358.947 120.182 331.447 62.2627 329.276 47.059C327.105 31.8554 331.447 0 331.447 0C331.447 0 332.171 39.0952 340.855 51.403C349.539 63.7107 374.145 124.525 374.145 124.525C374.145 124.525 374.145 201.268 394.408 238.915C414.671 276.562 453.75 318.554 451.579 346.065V361.993C451.579 361.993 495 320.726 492.105 306.97C489.211 293.214 485.592 260.635 458.092 241.087C430.592 221.54 412.5 190.408 432.039 145.521C451.579 100.634 451.579 92.6701 451.579 92.6701L438.553 148.417C438.553 148.417 431.316 198.372 451.579 215.748C471.842 233.123 498.618 264.979 498.618 264.979L492.829 160.725L511.645 201.992C511.645 201.992 552.171 149.865 599.934 132.489C647.697 115.114 677.368 54.2989 677.368 54.2989L717.895 22.4435L684.605 62.2627C684.605 62.2627 674.474 109.322 617.303 142.625C560.132 175.928 523.224 225.159 521.053 255.567C518.882 285.974 516.711 312.762 516.711 312.762C516.711 312.762 623.816 309.142 647.697 262.083C671.579 215.024 673.75 121.63 696.908 106.426C720.066 91.2222 763.487 72.3985 763.487 72.3985L715 112.218C715 112.218 704.868 144.797 707.04 167.965C709.211 191.132 691.119 212.852 691.119 212.852L677.368 253.395L662.171 288.146C662.171 288.146 724.408 289.594 756.974 326.517C789.54 363.441 870.592 374.3 870.592 374.3L825 386.608C825 386.608 781.579 372.128 740.329 345.341C699.079 318.554 703.421 294.662 652.04 321.45C600.658 348.237 530.461 370.681 530.461 370.681C530.461 370.681 570.987 351.857 644.079 397.468C717.171 443.079 607.895 389.504 575.329 406.88C542.763 424.255 527.566 402.536 514.54 445.975C501.513 489.414 477.632 608.148 505.132 674.754L532.632 741.361H376.316Z" fill="#3F3D56"/>
<path id="Vector_5" opacity="0.1" d="M648.795 262.083C629.393 300.315 555.059 309.875 527.857 312.117C527.094 321.931 526.591 328.138 526.591 328.138C526.591 328.138 633.697 324.518 657.578 277.459C681.46 230.4 683.631 137.006 706.789 121.802C709.245 120.19 711.93 118.536 714.766 116.869C715.562 113.947 716.098 112.218 716.098 112.218L764.585 72.3986C764.585 72.3986 721.164 91.2222 698.006 106.426C674.848 121.63 672.677 215.024 648.795 262.083Z" fill="black"/>
<path id="Vector_6" opacity="0.1" d="M523.996 188.941C523.838 206.766 521.525 217.368 521.525 217.368C521.525 217.368 562.035 165.263 609.785 147.877C612.607 146.091 615.47 144.332 618.4 142.625C675.572 109.322 685.703 62.2627 685.703 62.2627L718.993 22.4435L678.466 54.2989C678.466 54.2989 648.795 115.114 601.032 132.489C568.475 144.333 539.285 172.32 523.996 188.941Z" fill="black"/>
<path id="Vector_7" opacity="0.1" d="M461.46 361.441V377.369C461.46 377.369 504.881 336.102 501.986 322.346C499.772 311.826 497.122 290.301 483.703 272.011C489.752 285.833 491.593 299.316 493.203 306.97C495.279 316.834 473.539 340.844 461.072 353.64C461.509 356.216 461.639 358.835 461.46 361.441Z" fill="black"/>
<path id="Vector_8" opacity="0.1" d="M403.214 252.137C403.558 252.871 403.913 253.593 404.289 254.291C415.386 274.91 432.117 296.826 444.635 316.958C434.518 297.021 416.911 274.223 403.214 252.137Z" fill="black"/>
<path id="Vector_9" opacity="0.1" d="M438.496 221.315C432.66 207.01 431.698 189.988 438.403 170.042C438.319 162.814 438.736 155.588 439.651 148.417L451.046 99.651C448.945 106.684 444.138 120.25 433.137 145.521C419.211 177.513 424.409 202.511 438.496 221.315Z" fill="black"/>
<path id="Vector_10" opacity="0.1" d="M758.072 326.517C735.487 300.911 698.638 292.368 678.168 289.536L672.052 303.522C672.052 303.522 734.289 304.97 766.854 341.894C784.914 362.369 817.879 374.827 843.669 381.865L871.69 374.301C871.69 374.301 790.637 363.441 758.072 326.517Z" fill="black"/>
<path id="Vector_11" opacity="0.1" d="M315.275 316.554C345.67 303.522 303.696 230.4 303.696 230.4L302.548 229.873C313.012 251.961 328.189 291.876 306.493 301.178C286.191 309.882 267.183 288.227 256.797 272.883C257.174 273.969 257.381 274.563 257.381 274.563C257.381 274.563 284.881 329.586 315.275 316.554Z" fill="black"/>
<path id="Vector_12" opacity="0.1" d="M414.42 363.613C414.42 363.613 423.579 335.371 406.373 317.933C410.592 332.955 405.637 348.237 405.637 348.237C394.441 323.035 355.968 312.131 339.116 308.485C339.77 316.876 339.881 322.346 339.881 322.346C339.881 322.346 399.946 331.034 414.42 363.613Z" fill="black"/>
<path id="Vector_13" opacity="0.1" d="M451.046 99.6511C452.676 94.1921 452.677 92.6702 452.677 92.6702L451.046 99.6511Z" fill="black"/>
<path id="Vector_14" opacity="0.1" d="M89.7704 389.815C89.9164 389.768 90.0646 389.725 90.2096 389.677C120.604 379.541 146.657 341.17 173.433 328.138C200.21 315.106 216.131 297.731 252.315 316.554C252.315 316.554 245.984 290.632 233.717 273.601C237.78 282.492 241.064 291.719 243.532 301.178C207.348 282.354 191.427 299.73 164.651 312.762C137.874 325.793 111.822 364.165 81.4268 374.3C51.032 384.436 1.09784 364.165 1.09784 364.165C1.09784 364.165 34.3873 385.16 77.0847 388.78C81.969 389.194 86.1366 389.56 89.7704 389.815Z" fill="black"/>
<path id="Vector_15" opacity="0.1" d="M391.483 741.361C404.743 700.696 436.632 588.245 411.525 513.478C400.683 481.189 390.633 460.6 382.137 447.464C388.491 459.899 395.437 476.346 402.743 498.102C433.861 590.772 377.414 741.361 377.414 741.361H391.483Z" fill="black"/>
<path id="Vector_16" opacity="0.1" d="M108.864 432.975C117.737 433.876 126.373 436.376 134.354 440.356C164.075 455.222 186.126 464.65 212.976 453.7C219.092 450.468 225.934 446.468 233.824 441.705C234.439 441.256 235.048 440.825 235.67 440.356C274.025 411.396 326.854 373.749 378.236 396.193C378.236 396.193 367.851 386.007 356.211 376.334C309.116 364.777 261.953 398.504 226.887 424.98C188.532 453.939 163.203 443.803 125.572 424.98C87.9399 406.156 49.5847 427.152 49.5847 427.152C77.546 426.312 95.5635 428.825 108.864 432.975Z" fill="black"/>
<path id="Vector_17" opacity="0.1" d="M182.32 109.533C183.146 110.924 184.146 112.203 185.297 113.34C184.452 111.962 183.453 110.685 182.32 109.533V109.533Z" fill="black"/>
<path id="Vector_18" opacity="0.1" d="M314.552 227.504C315.67 228.562 316.718 229.693 317.689 230.888C314.519 223.264 310.604 216.672 305.769 212.128C281.887 189.684 242.808 191.132 242.808 191.132L291.817 213.604C300.215 216.738 307.933 221.457 314.552 227.504V227.504Z" fill="black"/>
<path id="Vector_19" opacity="0.1" d="M366.558 129.593C369.512 133.861 367.852 151.972 365.156 170.495C359.647 208.347 365.588 247.107 383.101 281.11C385.407 285.673 387.982 290.095 390.812 294.352C374.136 260.866 368.544 222.935 373.939 185.872C376.635 167.349 378.295 149.237 375.341 144.97C368.828 135.558 341.328 77.639 339.157 62.4353C338.506 56.537 338.354 50.5942 338.704 44.6703C333.082 28.7136 332.545 0 332.545 0C332.545 0 328.203 31.8554 330.374 47.059C332.545 62.2627 360.045 120.182 366.558 129.593Z" fill="black"/>
<path id="Vector_20" opacity="0.1" d="M434.451 29.5052C434.161 28.0742 433.721 26.6779 433.137 25.3396C433.137 25.3396 433.693 26.9021 434.451 29.5052Z" fill="black"/>
<path id="Vector_21" opacity="0.1" d="M178.843 102.42C185.221 103.201 192.557 105.159 198.153 109.699C197.788 108.464 197.47 107.356 197.216 106.426C190.703 82.5344 155.966 86.8784 155.966 86.8784C171.664 88.8918 175.719 95.6089 178.843 102.42Z" fill="black"/>
<path id="Vector_22" d="M358.712 710.427C363.872 729.509 381.545 741.327 381.545 741.327C381.545 741.327 390.853 722.207 385.693 703.125C380.533 684.043 362.86 672.226 362.86 672.226C362.86 672.226 353.552 691.345 358.712 710.427Z" fill="#3F3D56"/>
<path id="Vector_23" d="M366.294 706.326C380.452 720.115 382.182 741.311 382.182 741.311C382.182 741.311 360.955 740.152 346.797 726.363C332.638 712.575 330.909 691.378 330.909 691.378C330.909 691.378 352.135 692.538 366.294 706.326Z" fill="#6C63FF"/>
<g id="leaves">
<path id="Vector_24" d="M319.366 188.959C318.135 208.689 303.189 223.811 303.189 223.811C303.189 223.811 290.238 206.947 291.469 187.217C292.7 167.488 307.646 152.365 307.646 152.365C307.646 152.365 320.597 169.23 319.366 188.959Z" fill="#6C63FF"/>
<path id="Vector_25" d="M163.564 64.2343C180.278 74.7768 186.375 95.1502 186.375 95.1502C186.375 95.1502 165.372 98.431 148.657 87.8886C131.942 77.3462 125.845 56.9727 125.845 56.9727C125.845 56.9727 146.849 53.6919 163.564 64.2343Z" fill="#6C63FF"/>
<path id="Vector_26" d="M126.237 304.763C142.952 315.305 149.048 335.679 149.048 335.679C149.048 335.679 128.045 338.959 111.33 328.417C94.6151 317.875 88.5186 297.501 88.5186 297.501C88.5186 297.501 109.522 294.22 126.237 304.763Z" fill="#6C63FF"/>
<path id="Vector_27" d="M215.162 397.02C231.877 407.563 237.974 427.936 237.974 427.936C237.974 427.936 216.97 431.217 200.256 420.675C183.541 410.132 177.444 389.759 177.444 389.759C177.444 389.759 198.448 386.478 215.162 397.02Z" fill="#6C63FF"/>
<path id="Vector_28" d="M466.042 99.3977C461.001 118.511 443.402 130.439 443.402 130.439C443.402 130.439 433.975 111.378 439.015 92.2642C444.056 73.1506 461.656 61.2227 461.656 61.2227C461.656 61.2227 471.083 80.284 466.042 99.3977Z" fill="#6C63FF"/>
<path id="Vector_29" d="M625.049 114.301C619.125 133.159 600.989 144.255 600.989 144.255C600.989 144.255 592.459 124.775 598.384 105.917C604.308 87.0586 622.444 75.9631 622.444 75.9631C622.444 75.9631 630.974 95.4428 625.049 114.301Z" fill="#6C63FF"/>
<path id="Vector_30" d="M796.911 324.184C786.179 340.782 765.744 346.643 765.744 346.643C765.744 346.643 762.71 325.594 773.442 308.996C784.174 292.398 804.608 286.537 804.608 286.537C804.608 286.537 807.643 307.586 796.911 324.184Z" fill="#6C63FF"/>
</g>
<path id="Vector_31" d="M527.102 459.904C527.102 459.904 525.378 466.227 528.826 468.527C532.273 470.826 533.423 481.748 533.423 481.748L526.527 500.718L508.14 504.168L501.244 490.946V471.401C501.244 471.401 503.543 461.628 502.968 458.754C502.393 455.88 527.102 459.904 527.102 459.904Z" fill="#FFB9B9"/>
<path id="Vector_32" opacity="0.2" d="M527.102 459.904C527.102 459.904 525.378 466.227 528.826 468.527C532.273 470.826 533.423 481.748 533.423 481.748L526.527 500.718L508.14 504.168L501.244 490.946V471.401C501.244 471.401 503.543 461.628 502.968 458.754C502.393 455.88 527.102 459.904 527.102 459.904Z" fill="black"/>
<path id="Vector_33" d="M545.49 568.551L560.43 571.426C560.43 571.426 561.579 588.096 560.43 592.12C559.28 596.144 558.131 600.743 559.28 601.893C560.43 603.043 554.109 632.36 554.684 634.085C555.258 635.809 556.407 640.983 555.833 644.432C555.258 647.881 553.534 646.732 554.684 650.181C555.833 653.63 556.982 654.205 555.833 656.504C554.684 658.804 548.937 714.565 547.213 715.139C545.49 715.714 529.975 716.289 529.975 715.139C529.975 713.99 535.147 705.367 533.423 703.067C531.699 700.768 533.997 661.678 533.997 659.953C533.997 658.229 537.445 655.354 535.721 654.205C533.997 653.055 532.848 651.905 533.423 650.181C533.997 648.456 535.147 647.881 533.997 646.157C532.848 644.432 532.848 609.941 528.826 608.791C528.826 608.791 523.654 634.085 525.378 640.408C527.102 646.732 524.803 649.031 524.803 649.031L532.848 655.929L521.93 676.624L510.438 663.402C510.438 663.402 510.438 659.953 508.14 659.378C505.841 658.804 504.692 658.229 504.692 656.504C504.692 654.78 500.67 643.857 500.67 643.857C500.67 643.857 489.177 607.641 494.923 589.246C500.67 570.851 502.883 571.46 502.883 571.46L545.49 568.551Z" fill="#2F2E41"/>
<path id="Vector_34" d="M554.683 687.547L561.005 694.445L558.706 713.415H553.535L545.49 695.594L554.683 687.547Z" fill="#FFB9B9"/>
<path id="Vector_35" d="M558.706 700.193C558.706 700.193 556.407 705.367 554.684 704.217C552.96 703.068 552.388 701.343 549.801 701.343C547.214 701.343 544.915 701.918 545.49 703.068C546.064 704.217 552.96 716.864 552.96 716.864C553.971 719.023 554.496 721.378 554.496 723.762C554.496 726.147 553.971 728.502 552.96 730.661C549.512 738.134 562.153 742.158 564.452 734.11C566.75 726.062 567.325 716.864 566.75 713.415C566.176 709.966 569.624 692.145 569.624 692.145C569.624 692.145 560.341 687.864 557.512 687.705C557.512 687.705 559.855 697.894 558.706 700.193Z" fill="#2F2E41"/>
<path id="Vector_36" d="M543.191 712.84L545.49 719.738C545.49 719.738 545.49 726.637 547.788 730.086C550.087 733.535 552.385 741.008 543.191 741.583C533.997 742.158 529.975 738.709 529.975 738.709C529.975 738.709 531.699 734.11 529.975 732.385C528.251 730.661 529.975 727.212 529.975 727.212L531.699 713.415L543.191 712.84Z" fill="#2F2E41"/>
<path id="Vector_37" d="M527.677 655.354H532.848L558.706 689.271C558.706 689.271 554.109 700.193 547.214 701.343C547.214 701.343 546.064 700.768 540.893 697.319C535.721 693.87 521.93 676.624 521.93 676.624L520.207 666.852L527.677 655.354Z" fill="#2F2E41"/>
<path id="Vector_38" d="M515.035 467.377C525.19 467.377 533.423 459.141 533.423 448.982C533.423 438.822 525.19 430.586 515.035 430.586C504.88 430.586 496.647 438.822 496.647 448.982C496.647 459.141 504.88 467.377 515.035 467.377Z" fill="#FFB9B9"/>
<path id="Vector_39" d="M537.445 472.551L531.699 470.251C531.699 470.251 531.124 490.371 520.207 490.371C509.289 490.371 497.797 487.497 497.797 481.748C497.797 476 488.603 492.096 488.603 492.096C488.603 492.096 497.222 549.581 496.647 550.156C496.073 550.731 502.968 581.198 502.968 581.198C502.968 581.198 532.273 582.348 542.042 578.324C551.81 574.3 554.684 566.827 554.684 566.827L550.661 516.24L542.617 477.149L537.445 472.551Z" fill="#6C63FF"/>
<path id="Vector_40" d="M527.68 467.377C527.68 467.377 529.975 465.078 533.423 467.377C536.87 469.676 558.131 474.85 558.131 476.575V498.419C558.131 498.419 558.706 501.868 556.982 504.168C555.258 506.467 551.236 515.09 553.534 519.114C555.833 523.138 564.452 569.701 562.728 575.45C561.004 581.198 556.407 586.372 556.407 586.372C556.407 586.372 531.699 534.06 531.699 519.114C531.699 504.168 531.939 485.831 531.939 485.831L527.68 467.377Z" fill="#575A89"/>
<path id="Vector_41" d="M552.96 477.149H558.131C558.131 477.149 577.668 514.515 577.668 521.988C577.668 529.461 565.027 570.851 563.877 571.426C562.728 572.001 559.28 565.102 559.28 565.102L556.407 542.108C556.407 542.108 562.154 528.312 560.43 526.012C558.706 523.713 550.087 505.892 550.087 505.892L552.96 477.149Z" fill="#575A89"/>
<path id="Vector_42" d="M502.094 467.377C502.094 467.377 495.498 471.976 494.349 473.7C493.2 475.425 475.961 485.197 475.386 487.497C474.812 489.796 488.603 509.341 488.603 509.341C488.603 509.341 494.349 541.533 494.349 543.833C494.349 546.132 496.647 585.222 496.647 585.222C496.647 585.222 520.207 592.121 520.207 588.097C520.207 584.073 520.781 526.587 517.333 513.94C513.886 501.293 502.094 467.377 502.094 467.377Z" fill="#575A89"/>
<path id="Vector_43" d="M505.841 586.372C505.841 586.372 525.378 612.815 515.035 612.24C504.692 611.665 497.797 589.246 497.797 589.246L505.841 586.372Z" fill="#FFB9B9"/>
<path id="Vector_44" d="M482.282 485.772L475.386 487.497C475.386 487.497 469.64 538.084 473.088 544.982C476.536 551.881 494.923 596.719 494.923 594.995C494.923 593.27 511.099 590.196 510.481 588.572C509.863 586.947 506.416 580.048 505.267 577.749C504.117 575.45 502.393 572.575 502.968 569.701C503.543 566.827 496.647 554.524 496.647 554.524C496.647 554.524 494.923 547.282 494.349 543.833C493.774 540.383 488.603 502.443 488.603 502.443L482.282 485.772Z" fill="#575A89"/>
<path id="Vector_45" d="M533.064 434.742C532.712 433.66 531.971 432.748 530.983 432.184C531.035 431.042 530.886 429.9 530.544 428.809C529.399 425.623 526.688 425.806 524.129 424.397C523.019 423.786 523.088 423.246 522.51 422.242C521.735 420.908 520.601 419.818 519.237 419.097C517.659 417.977 515.837 417.249 513.921 416.973C509.841 416.712 506.712 420.326 502.812 421.485C501.093 421.997 499.246 422.018 497.518 422.501C495.79 422.984 494.066 424.138 493.808 425.818C493.689 426.594 493.899 427.39 493.779 428.165C493.539 429.706 492.103 430.786 491.142 432.053C489.016 434.857 489.259 438.817 490.959 441.867C491.319 442.5 491.729 443.104 492.185 443.673C492.329 445.123 492.769 446.527 493.479 447.799C495.179 450.849 498.104 453.128 501.16 455.022C500.91 454.012 500.758 452.981 500.706 451.942C500.663 451.595 500.711 451.244 500.846 450.921C501.186 450.252 502.085 450.073 502.771 449.706C503.424 449.277 503.955 448.683 504.309 447.985C504.663 447.288 504.828 446.509 504.789 445.728C504.83 444.19 504.484 442.65 504.655 441.121C504.664 440.764 504.751 440.414 504.909 440.094C505.067 439.774 505.292 439.493 505.57 439.269C506.099 438.986 506.696 438.852 507.295 438.881C510.205 438.77 513.245 438.719 515.811 437.424C516.644 436.904 517.533 436.48 518.462 436.161C520.643 435.626 522.872 437.065 524.129 438.827C525.386 440.589 526.012 442.685 527.172 444.505C528.332 446.325 530.335 447.948 532.578 447.732C532.702 447.733 532.826 447.709 532.941 447.661C533.056 447.612 533.16 447.541 533.247 447.452C533.344 447.29 533.387 447.102 533.371 446.915L533.496 438.844C533.6 437.461 533.453 436.072 533.064 434.742V434.742Z" fill="#2F2E41"/>
</g>
<defs>
<clipPath id="clip0">
<rect width="951" height="768" fill="white"/>
</clipPath>
</defs>
</svg>
